<?xml version="1.0" encoding="UTF-8" standalone="no"?>
<!DOCTYPE svg PUBLIC "-//W3C//DTD SVG 1.1//EN"
 "http://www.w3.org/Graphics/SVG/1.1/DTD/svg11.dtd">
<!-- Generated by graphviz version 2.50.0 (0)
 -->
<!-- Title: Tree Pages: 1 -->
<svg width="666pt" height="269pt"
 viewBox="0.00 0.00 666.00 269.00" xmlns="http://www.w3.org/2000/svg" xmlns:xlink="http://www.w3.org/1999/xlink">
<g id="graph0" class="graph" transform="scale(1 1) rotate(0) translate(4 265)">
<title>Tree</title>
<polygon fill="white" stroke="transparent" points="-4,4 -4,-265 662,-265 662,4 -4,4"/>
<!-- 0 -->
<g id="node1" class="node">
<title>0</title>
<path fill="#f6d6be" stroke="black" d="M392,-261C392,-261 265,-261 265,-261 259,-261 253,-255 253,-249 253,-249 253,-205 253,-205 253,-199 259,-193 265,-193 265,-193 392,-193 392,-193 398,-193 404,-199 404,-205 404,-205 404,-249 404,-249 404,-255 398,-261 392,-261"/>
<text text-anchor="middle" x="328.5" y="-245.8" font-family="Helvetica,sans-Serif" font-size="14.00">x1 &lt;= &#45;0.303</text>
<text text-anchor="middle" x="328.5" y="-230.8" font-family="Helvetica,sans-Serif" font-size="14.00">squared_error = 0.006</text>
<text text-anchor="middle" x="328.5" y="-215.8" font-family="Helvetica,sans-Serif" font-size="14.00">samples = 200</text>
<text text-anchor="middle" x="328.5" y="-200.8" font-family="Helvetica,sans-Serif" font-size="14.00">value = 0.088</text>
</g>
<!-- 1 -->
<g id="node2" class="node">
<title>1</title>
<path fill="#eb9d65" stroke="black" d="M308,-157C308,-157 181,-157 181,-157 175,-157 169,-151 169,-145 169,-145 169,-101 169,-101 169,-95 175,-89 181,-89 181,-89 308,-89 308,-89 314,-89 320,-95 320,-101 320,-101 320,-145 320,-145 320,-151 314,-157 308,-157"/>
<text text-anchor="middle" x="244.5" y="-141.8" font-family="Helvetica,sans-Serif" font-size="14.00">x1 &lt;= &#45;0.408</text>
<text text-anchor="middle" x="244.5" y="-126.8" font-family="Helvetica,sans-Serif" font-size="14.00">squared_error = 0.002</text>
<text text-anchor="middle" x="244.5" y="-111.8" font-family="Helvetica,sans-Serif" font-size="14.00">samples = 44</text>
<text text-anchor="middle" x="244.5" y="-96.8" font-family="Helvetica,sans-Serif" font-size="14.00">value = 0.172</text>
</g>
<!-- 0&#45;&gt;1 -->
<g id="edge1" class="edge">
<title>0&#45;&gt;1</title>
<path fill="none" stroke="black" d="M301.23,-192.88C293.97,-184.07 286.03,-174.43 278.46,-165.24"/>
<polygon fill="black" stroke="black" points="280.98,-162.79 271.92,-157.3 275.58,-167.24 280.98,-162.79"/>
<text text-anchor="middle" x="269.51" y="-178.48" font-family="Helvetica,sans-Serif" font-size="14.00">True</text>
</g>
<!-- 4 -->
<g id="node5" class="node">
<title>4</title>
<path fill="#fae6d7" stroke="black" d="M477,-157C477,-157 350,-157 350,-157 344,-157 338,-151 338,-145 338,-145 338,-101 338,-101 338,-95 344,-89 350,-89 350,-89 477,-89 477,-89 483,-89 489,-95 489,-101 489,-101 489,-145 489,-145 489,-151 483,-157 477,-157"/>
<text text-anchor="middle" x="413.5" y="-141.8" font-family="Helvetica,sans-Serif" font-size="14.00">x1 &lt;= 0.272</text>
<text text-anchor="middle" x="413.5" y="-126.8" font-family="Helvetica,sans-Serif" font-size="14.00">squared_error = 0.005</text>
<text text-anchor="middle" x="413.5" y="-111.8" font-family="Helvetica,sans-Serif" font-size="14.00">samples = 156</text>
<text text-anchor="middle" x="413.5" y="-96.8" font-family="Helvetica,sans-Serif" font-size="14.00">value = 0.065</text>
</g>
<!-- 0&#45;&gt;4 -->
<g id="edge4" class="edge">
<title>0&#45;&gt;4</title>
<path fill="none" stroke="black" d="M356.1,-192.88C363.45,-184.07 371.47,-174.43 379.14,-165.24"/>
<polygon fill="black" stroke="black" points="382.04,-167.22 385.75,-157.3 376.66,-162.74 382.04,-167.22"/>
<text text-anchor="middle" x="388.01" y="-178.5" font-family="Helvetica,sans-Serif" font-size="14.00">False</text>
</g>
<!-- 2 -->
<g id="node3" class="node">
<title>2</title>
<path fill="#e58139" stroke="black" d="M139,-53C139,-53 12,-53 12,-53 6,-53 0,-47 0,-41 0,-41 0,-12 0,-12 0,-6 6,0 12,0 12,0 139,0 139,0 145,0 151,-6 151,-12 151,-12 151,-41 151,-41 151,-47 145,-53 139,-53"/>
<text text-anchor="middle" x="75.5" y="-37.8" font-family="Helvetica,sans-Serif" font-size="14.00">squared_error = 0.001</text>
<text text-anchor="middle" x="75.5" y="-22.8" font-family="Helvetica,sans-Serif" font-size="14.00">samples = 20</text>
<text text-anchor="middle" x="75.5" y="-7.8" font-family="Helvetica,sans-Serif" font-size="14.00">value = 0.213</text>
</g>
<!-- 1&#45;&gt;2 -->
<g id="edge2" class="edge">
<title>1&#45;&gt;2</title>
<path fill="none" stroke="black" d="M185.39,-88.95C167.48,-78.93 147.89,-67.98 130.27,-58.13"/>
<polygon fill="black" stroke="black" points="131.69,-54.91 121.26,-53.09 128.28,-61.02 131.69,-54.91"/>
</g>
<!-- 3 -->
<g id="node4" class="node">
<title>3</title>
<path fill="#f0b489" stroke="black" d="M308,-53C308,-53 181,-53 181,-53 175,-53 169,-47 169,-41 169,-41 169,-12 169,-12 169,-6 175,0 181,0 181,0 308,0 308,0 314,0 320,-6 320,-12 320,-12 320,-41 320,-41 320,-47 314,-53 308,-53"/>
<text text-anchor="middle" x="244.5" y="-37.8" font-family="Helvetica,sans-Serif" font-size="14.00">squared_error = 0.001</text>
<text text-anchor="middle" x="244.5" y="-22.8" font-family="Helvetica,sans-Serif" font-size="14.00">samples = 24</text>
<text text-anchor="middle" x="244.5" y="-7.8" font-family="Helvetica,sans-Serif" font-size="14.00">value = 0.138</text>
</g>
<!-- 1&#45;&gt;3 -->
<g id="edge3" class="edge">
<title>1&#45;&gt;3</title>
<path fill="none" stroke="black" d="M244.5,-88.95C244.5,-80.72 244.5,-71.85 244.5,-63.48"/>
<polygon fill="black" stroke="black" points="248,-63.24 244.5,-53.24 241,-63.24 248,-63.24"/>
</g>
<!-- 5 -->
<g id="node6" class="node">
<title>5</title>
<path fill="#ffffff" stroke="black" d="M477,-53C477,-53 350,-53 350,-53 344,-53 338,-47 338,-41 338,-41 338,-12 338,-12 338,-6 344,0 350,0 350,0 477,0 477,0 483,0 489,-6 489,-12 489,-12 489,-41 489,-41 489,-47 483,-53 477,-53"/>
<text text-anchor="middle" x="413.5" y="-37.8" font-family="Helvetica,sans-Serif" font-size="14.00">squared_error = 0.001</text>
<text text-anchor="middle" x="413.5" y="-22.8" font-family="Helvetica,sans-Serif" font-size="14.00">samples = 110</text>
<text text-anchor="middle" x="413.5" y="-7.8" font-family="Helvetica,sans-Serif" font-size="14.00">value = 0.028</text>
</g>
<!-- 4&#45;&gt;5 -->
<g id="edge5" class="edge">
<title>4&#45;&gt;5</title>
<path fill="none" stroke="black" d="M413.5,-88.95C413.5,-80.72 413.5,-71.85 413.5,-63.48"/>
<polygon fill="black" stroke="black" points="417,-63.24 413.5,-53.24 410,-63.24 417,-63.24"/>
</g>
<!-- 6 -->
<g id="node7" class="node">
<title>6</title>
<path fill="#edaa79" stroke="black" d="M646,-53C646,-53 519,-53 519,-53 513,-53 507,-47 507,-41 507,-41 507,-12 507,-12 507,-6 513,0 519,0 519,0 646,0 646,0 652,0 658,-6 658,-12 658,-12 658,-41 658,-41 658,-47 652,-53 646,-53"/>
<text text-anchor="middle" x="582.5" y="-37.8" font-family="Helvetica,sans-Serif" font-size="14.00">squared_error = 0.002</text>
<text text-anchor="middle" x="582.5" y="-22.8" font-family="Helvetica,sans-Serif" font-size="14.00">samples = 46</text>
<text text-anchor="middle" x="582.5" y="-7.8" font-family="Helvetica,sans-Serif" font-size="14.00">value = 0.154</text>
</g>
<!-- 4&#45;&gt;6 -->
<g id="edge6" class="edge">
<title>4&#45;&gt;6</title>
<path fill="none" stroke="black" d="M472.61,-88.95C490.52,-78.93 510.11,-67.98 527.73,-58.13"/>
<polygon fill="black" stroke="black" points="529.72,-61.02 536.74,-53.09 526.31,-54.91 529.72,-61.02"/>
</g>
</g>
</svg>
